<svg xmlns="http://www.w3.org/2000/svg" version="1.1" xmlns:xlink="http://www.w3.org/1999/xlink" xmlns:svgjs="http://svgjs.dev/svgjs" width="1000" height="1000" viewBox="0 0 1000 1000"><rect width="1000" height="1000" fill="#ffffff"></rect><g transform="matrix(0.7,0,0,0.7,149.57618009031745,289.50714402166125)"><svg viewBox="0 0 396 238" data-background-color="#ffffff" preserveAspectRatio="xMidYMid meet" height="601" width="1000" xmlns="http://www.w3.org/2000/svg" xmlns:xlink="http://www.w3.org/1999/xlink"><g id="tight-bounds" transform="matrix(1,0,0,1,0.24023902252247353,0.08081702601528207)"><svg viewBox="0 0 395.52 237.83836556397054" height="237.83836556397054" width="395.52"><g><svg viewBox="0 0 395.52 237.83836556397054" height="237.83836556397054" width="395.52"><g transform="matrix(1,0,0,1,0,153.98425174031183)"><svg viewBox="0 0 395.52 83.85411382365871" height="83.85411382365871" width="395.52"><g id="textblocktransform"><svg viewBox="0 0 395.52 83.85411382365871" height="83.85411382365871" width="395.52" id="textblock"><g><svg viewBox="0 0 395.52 63.75724413854727" height="63.75724413854727" width="395.52"><g transform="matrix(1,0,0,1,0,0)"><svg width="395.52" viewBox="-1.0788469314575195 -46.860347747802734 459.19482421875 74.02154541015625" height="63.75724413854727" data-palette-color="#bb84e8"><path d="M56.659-33.812v0l-2.117 0.694c-2.003 4.825-3.699 11.186-5.087 19.083v0c-0.526 2.982-1.369 6.442-2.528 10.383-1.158 3.946-2.539 7.636-4.142 11.07v0c-2.167 4.605-5.332 8.582-9.494 11.931-4.17 3.344-8.092 5.514-11.767 6.512v0c-1.687 0.466-3.624 0.843-5.811 1.133-2.188 0.29-4.496 0.202-6.925-0.262v0c-3.803-0.733-6.558-2.393-8.265-4.978v0c-0.777-1.195-1.279-2.652-1.508-4.369-0.228-1.718-0.043-3.801 0.555-6.247v0c0.436-1.631 1.374-3.229 2.814-4.792 1.44-1.563 2.611-2.421 3.513-2.573v0c0.399-0.086 0.609-0.047 0.631 0.118v0c-0.016 0.137-0.211 0.334-0.588 0.592v0c-1.019 0.579-2.088 1.699-3.206 3.36-1.119 1.655-1.787 3.26-2.005 4.815-0.224 1.556-0.283 2.738-0.176 3.544v0c0.326 2.458 1.247 4.357 2.763 5.697v0c1.039 0.891 2.287 1.654 3.743 2.288 1.455 0.628 2.979 0.991 4.573 1.088v0c2.344 0.133 4.191 0.11 5.539-0.068 1.348-0.179 2.526-0.473 3.534-0.882v0c2.227-0.806 4.329-1.942 6.307-3.408 1.985-1.46 3.712-2.997 5.179-4.61 1.467-1.62 2.88-3.566 4.24-5.838 1.36-2.272 2.483-4.324 3.371-6.156 0.894-1.833 1.806-4.009 2.736-6.526v0c1.513-4.114 2.999-8.804 4.46-14.068v0c1.878-6.281 3.895-11.76 6.053-16.438v0c-4.582 1.401-9.127 3.718-13.635 6.952v0c-2.284 1.641-4.168 3.589-5.651 5.843v0c-1.921 2.857-2.687 5.753-2.299 8.687v0c0.209 1.58 0.752 2.758 1.629 3.537 0.876 0.772 1.733 1.102 2.573 0.99 0.846-0.112 1.75-0.42 2.712-0.924 0.962-0.504 1.786-1.262 2.472-2.275v0c1.085-1.657 1.501-3.444 1.247-5.36v0c-0.108-0.813-0.298-1.336-0.571-1.568v0c-0.439-0.218-0.506-0.468-0.2-0.751v0c0.344-0.247 0.746-0.18 1.207 0.204v0c0.435 0.696 0.718 1.539 0.85 2.53 0.132 0.998-0.087 2.184-0.659 3.557v0c-0.967 2.294-2.493 3.972-4.578 5.035v0c-0.966 0.471-1.906 0.767-2.818 0.888v0c-1.513 0.201-2.943-0.108-4.288-0.924v0c-1.716-1.077-2.717-2.693-3.003-4.848v0c-0.362-2.729 0.27-5.47 1.896-8.22v0c1.226-2.119 2.757-3.933 4.595-5.441 1.837-1.514 3.956-2.928 6.358-4.242v0c3.868-2.12 8.149-3.817 12.842-5.091v0c0.32-0.728 0.823-1.602 1.509-2.621 0.686-1.012 1.289-1.64 1.808-1.884 0.513-0.236 0.939-0.377 1.276-0.422v0c1.183-0.157 1.841 0.27 1.975 1.282v0c0.087 0.91-0.191 1.656-0.833 2.239-0.642 0.583-1.578 1.161-2.806 1.734zM57.784-37.351v0c-0.066 0.009-0.14 0.035-0.222 0.08-0.082 0.044-0.19 0.136-0.326 0.275-0.136 0.139-0.264 0.267-0.383 0.384-0.119 0.117-0.258 0.29-0.416 0.519-0.165 0.224-0.296 0.402-0.393 0.536-0.103 0.135-0.243 0.325-0.418 0.57-0.169 0.244-0.286 0.408-0.349 0.49v0c2.272-0.718 3.336-1.495 3.192-2.329v0c-0.12-0.394-0.348-0.569-0.685-0.525zM66.605-12.751c-0.54 0.673-1.243 2.146-2.109 4.419-0.866 2.274-1.347 3.953-1.444 5.038-0.096 1.091-0.106 1.965-0.031 2.621 0.076 0.662 0.366 0.965 0.869 0.907v0c0.642-0.074 1.369-0.758 2.18-2.053v0c1.186-1.881 2.296-4.284 3.328-7.207v0c0.097-0.32 0.23-0.506 0.399-0.559v0c0.254-0.13 0.398-0.042 0.433 0.262v0c0.019 0.166-0.007 0.373-0.079 0.623v0c-2.384 6.636-4.639 10.076-6.766 10.32v0c-0.98 0.113-1.829-0.269-2.547-1.146v0c-0.363-0.468-0.592-1.123-0.689-1.964-0.097-0.848-0.047-1.897 0.151-3.148v0c-2.195 4.661-4.273 7.105-6.233 7.33v0c-0.543 0.062-1.053-0.05-1.529-0.338v0c-1.095-0.592-1.741-1.749-1.939-3.471v0c-0.38-3.305 0.671-6.828 3.153-10.569v0c1.398-2.08 3.247-3.541 5.546-4.382v0c0.623-0.246 1.222-0.402 1.798-0.469v0c1.55-0.178 2.927 0.21 4.13 1.166v0c0.38 0.332 0.524 0.675 0.43 1.027-0.1 0.354-0.373 0.523-0.817 0.507v0c-0.51-1.169-1.391-1.682-2.643-1.538v0c-1.45 0.167-3.107 1.518-4.969 4.054v0c-1.057 1.49-2.004 3.207-2.841 5.148v0c-1.065 2.35-1.522 4.185-1.37 5.503 0.151 1.311 0.647 1.919 1.488 1.822v0c2.027-0.233 4.319-3.644 6.876-10.233v0c0.499-1.319 0.945-2.232 1.335-2.74 0.385-0.507 0.915-0.8 1.591-0.877v0c0.132-0.015 0.483-0.005 1.05 0.03 0.569 0.042 0.985 0.014 1.249-0.083zM74.617-0.684v0c0.445 0.021 0.753 0.022 0.925 0.005v0c1.346-0.14 2.597-1.07 3.752-2.792v-0.001c0.618-0.956 1.658-3.302 3.12-7.039v0c0.049-0.173 0.157-0.268 0.323-0.285v0c0.301-0.071 0.465 0.029 0.493 0.301v0c0.007 0.066-0.049 0.27-0.168 0.61-0.119 0.334-0.229 0.671-0.327 1.009-0.106 0.333-0.277 0.82-0.512 1.461-0.242 0.642-0.453 1.16-0.633 1.554-0.187 0.395-0.418 0.878-0.694 1.449-0.282 0.579-0.576 1.038-0.883 1.379v0l-0.948 1.224c-0.517 0.637-1.151 1.111-1.904 1.424v0c-1.211 0.535-2.425 0.694-3.64 0.478v0c-0.747 0.419-1.423 0.66-2.026 0.723v0c-2.4 0.249-3.954-0.545-4.661-2.381v0c-0.145-0.427-0.25-0.956-0.315-1.586-0.065-0.623 0.085-1.245 0.45-1.866 0.359-0.614 0.775-0.962 1.249-1.045v0c1.383-3.461 2.545-6.571 3.485-9.33v0c1.054-3.018 2.476-4.62 4.267-4.806v0c0.477-0.05 0.953 0.012 1.426 0.184 0.481 0.178 0.675 0.406 0.584 0.683-0.085 0.284-0.321 0.362-0.709 0.235-0.396-0.133-0.726-0.186-0.992-0.159-0.272 0.028-0.505 0.103-0.701 0.224v0c-1.091 0.663-1.543 1.889-1.357 3.68v0c0.098 0.948 0.315 1.713 0.65 2.295 0.334 0.575 0.708 1.2 1.12 1.874v0c0.959 1.683 1.496 3.082 1.611 4.196v0c0.116 1.114-0.125 2.248-0.722 3.403-0.597 1.154-1.352 2.121-2.263 2.899zM72.859-0.863v0c1.366-1.301 1.916-3.235 1.65-5.802v0c-0.109-1.048-0.377-2.474-0.806-4.279-0.428-1.799-0.675-3.02-0.742-3.663-0.066-0.637-0.092-1.076-0.077-1.319v0c-2.04 5.406-3.307 8.698-3.801 9.875v0c0.71-0.074 1.117 0.397 1.223 1.411v0c0.207 1.996 1.058 3.255 2.553 3.777zM68.908-1.831v0c0.021 0.199 0.06 0.416 0.118 0.652v0c0.367 0.887 1.041 1.279 2.022 1.177v0c0.404-0.042 0.735-0.147 0.993-0.314v0c-1.334-0.646-2.142-1.842-2.423-3.589v0c-0.547 0.673-0.783 1.365-0.71 2.074zM90.854-19.231v0c2.469-0.232 3.85 1.208 4.143 4.32v0c0.134 1.42-0.095 2.979-0.685 4.675v0c-0.736 2.286-1.968 4.414-3.698 6.385v0c0.518 0.808 1.355 1.158 2.509 1.049v0c0.909-0.086 1.729-0.625 2.46-1.617v0c0.917-1.144 1.557-2.135 1.919-2.973 0.363-0.838 0.63-1.452 0.801-1.844 0.164-0.39 0.376-0.946 0.637-1.667 0.253-0.727 0.405-1.17 0.457-1.328 0.052-0.159 0.164-0.246 0.337-0.263v0c0.335-0.065 0.516 0.038 0.542 0.311v0c0.009 0.1-0.013 0.222-0.066 0.367v0l-0.242 0.736c-0.155 0.49-0.276 0.843-0.363 1.059-0.08 0.215-0.222 0.597-0.424 1.145-0.203 0.548-0.383 0.98-0.541 1.296-0.164 0.323-0.381 0.756-0.651 1.297-0.271 0.534-0.522 0.966-0.752 1.296-0.223 0.329-0.504 0.697-0.841 1.104-0.337 0.407-0.665 0.729-0.983 0.966v0c-0.795 0.584-1.568 0.911-2.319 0.982v0c-1.387 0.131-2.51-0.206-3.369-1.009v0c-1.445 1.294-2.828 2.004-4.149 2.128v0c-2.469 0.232-3.85-1.208-4.143-4.32v0c-0.134-1.42 0.095-2.979 0.685-4.675v0c0.792-2.465 2.034-4.611 3.723-6.437 1.689-1.833 3.36-2.827 5.013-2.983zM91.559-17.711v0c-0.909 0.086-1.934 0.795-3.074 2.128-1.133 1.339-2.092 3.103-2.876 5.293v0c-0.959 2.548-1.365 4.598-1.219 6.151 0.147 1.56 0.814 2.284 2.002 2.172v0c0.843-0.079 1.746-0.626 2.708-1.641v0c-0.611-0.726-0.957-1.527-1.04-2.403v0c-0.071-1.466 0.451-2.252 1.566-2.358v0c0.438-0.041 0.817 0.077 1.139 0.355 0.314 0.278 0.483 0.544 0.506 0.796 0.024 0.259 0.016 0.524-0.025 0.796v0c0.491-0.897 1.039-2.16 1.642-3.79v0c0.68-1.805 0.943-3.534 0.787-5.187-0.156-1.659-0.862-2.43-2.116-2.312zM114.159-20.079v0c-3.572 7.654-5.267 12.601-5.085 14.841v0c0.071 0.877 0.429 1.289 1.074 1.237v0c1.728-0.14 3.809-3.259 6.242-9.356v0c0.168-0.489 0.355-0.691 0.563-0.608 0.214 0.083 0.328 0.211 0.342 0.384 0.013 0.166-0.036 0.374-0.15 0.624v0c-1.506 3.768-2.822 6.39-3.946 7.865-1.125 1.469-2.305 2.254-3.541 2.355-1.236 0.1-2.215-0.295-2.935-1.186v0c-0.375-0.418-0.593-1.005-0.655-1.763-0.062-0.764 0.032-1.702 0.283-2.812 0.251-1.111 1.041-2.947 2.371-5.51v0c0.322-0.642 0.469-1.142 0.44-1.501-0.029-0.352-0.332-0.505-0.91-0.458-0.578 0.047-1.616 0.897-3.113 2.551v0c-2.257 2.437-4.34 5.984-6.249 10.641v0c-0.172 0.355-0.384 0.583-0.637 0.684-0.245 0.107-0.739 0.207-1.48 0.301-0.742 0.094-1.226 0.22-1.454 0.379v0c0.457-1.127 1.343-3.433 2.658-6.918v0c2.369-6.159 3.957-9.699 4.765-10.621v0c0.372-0.438 0.914-0.686 1.626-0.744v0c0.14-0.011 0.493 0.013 1.059 0.074 0.566 0.054 0.983 0.037 1.25-0.051v0c-1.201 0.78-2.992 4.129-5.374 10.048v0c1.428-2.096 2.749-3.782 3.964-5.058 1.208-1.269 2.685-2.479 4.43-3.63 1.746-1.145 3.045-1.752 3.895-1.822v0c0.199-0.016 0.388 0.002 0.567 0.055zM116.656-23.463v0c-0.016-0.206 0.106-0.369 0.364-0.489v0c0.989-0.449 1.821-1.073 2.496-1.873 0.668-0.799 1.032-1.746 1.09-2.84v0c-0.486 0.378-0.992 0.586-1.517 0.626-0.525 0.04-0.955-0.115-1.289-0.464-0.328-0.356-0.502-0.667-0.522-0.934-0.021-0.273-0.011-0.591 0.028-0.955 0.04-0.357 0.281-0.757 0.722-1.197 0.448-0.442 0.984-0.686 1.61-0.733 0.625-0.047 1.138 0.195 1.539 0.726 0.394 0.532 0.62 1.17 0.676 1.914v0c0.112 1.489-0.309 2.774-1.264 3.856-0.962 1.075-2.084 1.882-3.367 2.421v0c-0.104 0.041-0.222 0.067-0.355 0.077-0.133 0.01-0.203-0.035-0.211-0.135zM129.332-5.381v0c0.443 0.038 0.752 0.051 0.925 0.039v0c1.35-0.089 2.635-0.972 3.854-2.65v0c0.653-0.932 1.781-3.238 3.382-6.917v0c0.056-0.171 0.166-0.262 0.332-0.273v0c0.303-0.06 0.464 0.046 0.482 0.319v0c0.004 0.067-0.059 0.268-0.19 0.604-0.132 0.329-0.254 0.661-0.365 0.996-0.119 0.329-0.307 0.809-0.567 1.441-0.266 0.632-0.496 1.142-0.691 1.528-0.202 0.387-0.451 0.862-0.748 1.423-0.303 0.568-0.614 1.016-0.933 1.344v0l-0.994 1.188c-0.541 0.617-1.192 1.067-1.955 1.352v0c-1.23 0.489-2.449 0.603-3.656 0.341v0c-0.763 0.391-1.447 0.607-2.052 0.647v0c-2.408 0.159-3.931-0.693-4.568-2.555v0c-0.129-0.432-0.214-0.965-0.255-1.596-0.041-0.625 0.132-1.241 0.519-1.849 0.381-0.6 0.81-0.932 1.287-0.997v0c1.512-3.407 2.79-6.471 3.833-9.192v0c1.167-2.977 2.648-4.524 4.444-4.643v0c0.479-0.032 0.952 0.047 1.419 0.237 0.474 0.196 0.66 0.431 0.557 0.705-0.095 0.28-0.334 0.349-0.718 0.208-0.391-0.148-0.719-0.213-0.985-0.196-0.273 0.018-0.509 0.084-0.708 0.197v0c-1.115 0.621-1.613 1.83-1.495 3.627v0c0.063 0.951 0.251 1.724 0.564 2.318 0.313 0.587 0.662 1.226 1.049 1.915v0c0.895 1.718 1.379 3.136 1.453 4.253v0c0.074 1.118-0.209 2.242-0.85 3.374-0.64 1.131-1.43 2.069-2.37 2.812zM127.582-5.627v0c1.414-1.249 2.036-3.161 1.867-5.735v0c-0.069-1.051-0.284-2.487-0.645-4.307-0.36-1.814-0.562-3.043-0.604-3.688-0.042-0.639-0.051-1.079-0.028-1.321v0c-2.241 5.326-3.63 8.568-4.168 9.726v0c0.712-0.047 1.101 0.438 1.168 1.456v0c0.132 2.002 0.935 3.292 2.41 3.869zM123.67-6.741v0c0.013 0.2 0.044 0.418 0.094 0.655v0c0.333 0.9 0.992 1.318 1.977 1.252v0c0.406-0.027 0.74-0.119 1.003-0.276v0c-1.309-0.695-2.071-1.921-2.287-3.678v0c-0.572 0.652-0.834 1.334-0.787 2.047zM167.63-1.205v0c-2.651 0.107-5.21-0.31-7.677-1.252-2.473-0.934-4.469-2.375-5.989-4.322-1.526-1.947-2.49-4.1-2.892-6.459v0c-0.174-1.014-0.286-2.134-0.336-3.359-0.049-1.219 0.039-2.837 0.265-4.855 0.226-2.017 0.807-4.219 1.745-6.606 0.945-2.38 2.094-4.498 3.447-6.354v0c-0.671-2.255-1.046-4.341-1.123-6.259-0.077-1.918 0.07-3.719 0.442-5.403v0c0.056-0.276 0.158-0.473 0.307-0.592 0.148-0.126 0.259-0.191 0.332-0.194v0c0.333-0.013 0.45 0.399 0.35 1.237-0.1 0.838-0.118 2.026-0.056 3.565 0.062 1.545 0.361 3.498 0.897 5.859v0c2.577-3.607 5.665-6.28 9.264-8.02v0c2.768-1.339 5.698-2.071 8.789-2.196v0c0.886-0.036 1.807-0.023 2.764 0.039v0c5.252 0.369 8.864 2.231 10.834 5.588v0c0.804 1.395 1.236 2.856 1.297 4.381 0.062 1.532-0.231 3.125-0.878 4.78v0c-1.361 3.324-3.828 5.839-7.402 7.544v0c-2.304 1.114-4.848 1.727-7.632 1.839v0c-1.186 0.048-2.391 0.013-3.617-0.105v0c-6.117-0.641-10.447-3.359-12.989-8.153v0c-0.766 1.185-1.528 3.154-2.284 5.907-0.756 2.753-1.172 4.861-1.247 6.325-0.081 1.464-0.102 2.69-0.062 3.676 0.04 0.986 0.151 2.002 0.334 3.049v0c0.308 1.856 1.089 3.516 2.342 4.979 1.247 1.464 2.874 2.453 4.883 2.966 2.016 0.519 3.753 0.749 5.213 0.691v0c4.716-0.19 8.7-1.338 11.95-3.445v0c1.957-1.273 3.471-2.685 4.544-4.236 1.078-1.558 2.21-3.689 3.395-6.392v0c0.182-0.448 0.389-0.61 0.621-0.485 0.225 0.131 0.228 0.455 0.009 0.97v0c-1.187 2.67-2.299 4.79-3.337 6.36-1.044 1.57-2.489 3.056-4.334 4.458v0c-3.697 2.805-7.753 4.296-12.169 4.474zM158.725-32.172v0c2.659 6.051 7.809 8.923 15.45 8.615v0c4.316-0.174 7.722-1.519 10.215-4.035 2.501-2.516 3.689-5.303 3.567-8.36-0.123-3.058-1.541-5.382-4.255-6.975v0c-2.022-1.173-4.475-1.701-7.36-1.584-2.884 0.116-5.755 1.066-8.612 2.849v0c-3.577 2.286-6.579 5.449-9.005 9.49zM202.186-21.296c-0.6 0.62-1.435 2.023-2.506 4.208-1.071 2.185-1.705 3.813-1.901 4.883-0.196 1.078-0.286 1.947-0.271 2.607 0.015 0.666 0.276 0.994 0.782 0.983v0c0.646-0.015 1.433-0.629 2.359-1.844v0c1.354-1.764 2.68-4.055 3.977-6.871v0c0.126-0.31 0.276-0.483 0.448-0.52v0c0.264-0.106 0.4-0.006 0.407 0.301v0c0.004 0.167-0.042 0.371-0.136 0.613v0c-2.984 6.389-5.546 9.607-7.685 9.655v0c-0.986 0.022-1.797-0.436-2.432-1.375v0c-0.318-0.5-0.486-1.173-0.505-2.019-0.019-0.853 0.127-1.893 0.44-3.121v0c-2.614 4.44-4.908 6.682-6.881 6.726v0c-0.547 0.012-1.044-0.147-1.491-0.476v0c-1.036-0.69-1.573-1.902-1.612-3.635v0c-0.075-3.326 1.296-6.737 4.111-10.235v0c1.583-1.943 3.558-3.227 5.925-3.854v0c0.643-0.188 1.254-0.288 1.833-0.301v0c1.56-0.035 2.895 0.478 4.006 1.54v0c0.348 0.366 0.46 0.72 0.334 1.063-0.132 0.343-0.419 0.486-0.861 0.429v0c-0.401-1.211-1.231-1.803-2.49-1.774v0c-1.46 0.033-3.233 1.226-5.321 3.58v0c-1.189 1.387-2.29 3.009-3.301 4.866v0c-1.277 2.243-1.9 4.027-1.871 5.353 0.03 1.32 0.468 1.97 1.315 1.951v0c2.039-0.046 4.635-3.232 7.787-9.558v0c0.618-1.268 1.146-2.136 1.582-2.606 0.43-0.47 0.984-0.712 1.664-0.727v0c0.133-0.003 0.481 0.039 1.043 0.126 0.562 0.094 0.979 0.105 1.251 0.032zM228.689-24.388v0c-4.098 7.401-6.14 12.171-6.126 14.311v0c0.006 0.953 0.333 1.428 0.979 1.423v0c0.813-0.005 1.743-0.622 2.788-1.848v0c1.587-1.95 2.965-4.29 4.134-7.017v0c0.204-0.475 0.406-0.663 0.606-0.564 0.207 0.099 0.312 0.235 0.313 0.407 0.001 0.167-0.166 0.591-0.502 1.274-0.336 0.682-0.605 1.227-0.809 1.635-0.197 0.415-0.642 1.201-1.334 2.359-0.686 1.158-1.273 2.012-1.764 2.562-0.49 0.543-1.116 1.081-1.879 1.612-0.763 0.532-1.628 0.801-2.595 0.807-0.967 0.006-1.793-0.462-2.479-1.403v0c-0.31-0.445-0.467-1.047-0.472-1.807-0.005-0.767 0.159-1.694 0.492-2.784 0.333-1.089 1.254-2.862 2.765-5.318v0c0.369-0.616 0.553-1.104 0.55-1.464-0.002-0.353-0.283-0.528-0.843-0.524-0.56 0.004-1.565 0.69-3.017 2.06-1.451 1.37-2.976 3.213-4.574 5.53-1.598 2.324-2.546 4.184-2.843 5.579v0c-0.58 0.004-1.008-0.23-1.284-0.702-0.276-0.478-0.416-0.887-0.419-1.227v0c-0.009-1.393 0.91-4.049 2.758-7.968v0c0.605-1.297 0.922-2.173 0.953-2.627 0.03-0.46-0.031-0.7-0.185-0.718-0.153-0.012-0.366 0.049-0.639 0.184v0c-0.611 0.311-1.54 1.063-2.785 2.258v0c-2.366 2.196-4.69 5.524-6.974 9.986v0c-0.164 0.374-0.373 0.606-0.626 0.695-0.259 0.088-0.762 0.152-1.509 0.189-0.746 0.038-1.239 0.125-1.478 0.26v0c0.606-1.191 1.664-3.421 3.176-6.691v0c2.708-5.865 4.519-9.243 5.433-10.136v0c0.404-0.409 0.963-0.616 1.676-0.621v0c0.14-0.001 0.49 0.05 1.051 0.153 0.561 0.096 0.977 0.11 1.251 0.042v0c-1.255 0.688-3.291 3.895-6.107 9.62v0c1.58-1.984 2.718-3.281 3.414-3.892 0.689-0.618 1.203-1.081 1.541-1.39 0.338-0.309 0.6-0.547 0.786-0.716 0.186-0.175 0.457-0.423 0.815-0.745 0.358-0.329 0.63-0.571 0.815-0.725 0.186-0.155 0.448-0.366 0.786-0.636 0.338-0.276 0.6-0.457 0.786-0.545 0.186-0.088 0.438-0.233 0.757-0.435 0.319-0.209 0.555-0.314 0.708-0.314 0.153-0.001 0.366-0.046 0.639-0.135 0.273-0.082 0.46-0.056 0.561 0.077v0c0.682 0.269 1.025 0.69 1.028 1.263v0c0.003 0.513-0.565 1.827-1.704 3.941-1.139 2.114-1.877 3.512-2.212 4.195v0c1.481-1.876 2.898-3.422 4.249-4.638 1.352-1.216 2.948-2.339 4.788-3.372 1.847-1.032 3.197-1.551 4.05-1.557v0c0.2-0.001 0.37 0.031 0.511 0.097zM245.791-21.418v0c-0.013 1.5-0.418 3.146-1.214 4.94-0.803 1.793-1.898 3.517-3.286 5.17-1.395 1.654-3.078 2.776-5.05 3.365v0c-0.748 0.2-1.609 0.296-2.583 0.287-0.967-0.009-2.024-0.325-3.172-0.948v0l-4.957 12.036c-0.516 1.082-0.996 1.791-1.439 2.128-0.45 0.336-0.878 0.502-1.285 0.498-0.407-0.004-0.653-0.006-0.74-0.007-0.08-0.001-0.383-0.053-0.908-0.158-0.526-0.105-0.925-0.142-1.199-0.11v0c0.753-0.707 2.677-4.08 5.77-10.119 3.094-6.039 4.857-10.11 5.289-12.214v0c-0.378 0.543-0.737 0.83-1.077 0.861v0c-0.207-0.002-0.205-0.199 0.005-0.59 0.203-0.392 0.55-1.145 1.04-2.261v0c0.62-1.455 0.935-2.802 0.946-4.042 0.011-1.24-0.219-1.965-0.69-2.176v0c2.043-0.322 3.234-0.471 3.574-0.448 0.34 0.016 0.549 0.162 0.626 0.436 0.084 0.274 0.125 0.581 0.122 0.921v0c-0.019 2.073-0.516 4.379-1.492 6.917v0l1.034-1.621c1.244-1.962 2.149-3.228 2.714-3.796 0.565-0.575 1.174-1.166 1.826-1.774v0c0.995-0.938 1.949-1.403 2.863-1.394v0c0.273 0.002 0.53 0.038 0.769 0.107v0c1.696 0.455 2.534 1.786 2.514 3.992zM243.346-21.94v0c0.005-0.547-0.101-1.051-0.317-1.513-0.216-0.462-0.564-0.695-1.043-0.699v0c-1.187-0.011-2.58 1.084-4.18 3.283-1.6 2.192-3.901 6.029-6.903 11.509v0c0.436 0.444 1.044 0.669 1.824 0.676 0.78 0.007 1.889-0.577 3.326-1.75v0c2.297-1.886 4.221-4.232 5.773-7.039v0c1.003-1.824 1.51-3.313 1.52-4.467zM254.729-27.279c-0.48 0.399-1.01 0.594-1.589 0.585-0.58-0.009-1.037-0.22-1.37-0.632-0.334-0.412-0.462-0.907-0.387-1.486v0c0.116-0.572 0.413-1.06 0.893-1.466 0.48-0.399 1.01-0.594 1.59-0.585 0.58 0.009 1.043 0.22 1.39 0.632 0.353 0.419 0.476 0.914 0.366 1.486-0.116 0.578-0.414 1.067-0.893 1.466zM249.434-8.651v0c0.647 0.01 1.332-0.302 2.055-0.937v0c1.28-1.24 2.917-3.781 4.911-7.624v0c0.248-0.503 0.49-0.652 0.728-0.448v0c0.066 0.074 0.097 0.188 0.094 0.341-0.002 0.147-0.145 0.518-0.427 1.114-0.283 0.589-0.538 1.118-0.766 1.588-0.228 0.476-0.663 1.243-1.306 2.299-0.644 1.063-1.226 1.878-1.749 2.443v0c-1.418 1.578-2.748 2.357-3.987 2.337-1.24-0.02-2.127-0.407-2.662-1.162-0.528-0.755-0.785-1.593-0.771-2.512 0.015-0.92 0.25-1.92 0.708-2.999v0l3.391-8.258c0.076-0.199 0.117-0.468 0.122-0.808 0.005-0.34-0.194-0.786-0.599-1.34v0l2.811-0.005c0.78 0.012 1.234 0.166 1.363 0.461 0.135 0.289 0.028 0.737-0.322 1.345v0l-4.23 9.465c-0.6 1.244-0.907 2.309-0.92 3.196v0c-0.016 0.987 0.503 1.488 1.556 1.504zM272.021-23.723v0c-4.367 7.23-6.579 11.968-6.637 14.214v0c-0.023 0.88 0.289 1.328 0.936 1.345v0c1.733 0.044 4.134-2.835 7.204-8.638v0c0.219-0.468 0.427-0.649 0.624-0.544 0.204 0.105 0.304 0.245 0.299 0.417-0.004 0.167-0.076 0.368-0.215 0.605v0c-1.899 3.586-3.486 6.053-4.762 7.4-1.275 1.341-2.532 1.996-3.771 1.964-1.24-0.032-2.17-0.529-2.793-1.492v0c-0.328-0.455-0.483-1.063-0.463-1.822 0.02-0.766 0.213-1.688 0.581-2.766 0.368-1.078 1.349-2.82 2.945-5.227v0c0.389-0.604 0.588-1.085 0.597-1.445 0.009-0.353-0.276-0.537-0.856-0.552-0.58-0.015-1.702 0.72-3.368 2.205v0c-2.503 2.183-4.952 5.488-7.346 9.914v0c-0.209 0.335-0.444 0.539-0.706 0.612-0.255 0.08-0.757 0.127-1.504 0.142-0.747 0.014-1.243 0.088-1.487 0.222v0c0.574-1.072 1.701-3.271 3.381-6.596v0c3.012-5.871 4.968-9.222 5.87-10.052v0c0.417-0.396 0.982-0.585 1.695-0.567v0c0.14 0.004 0.488 0.066 1.045 0.187 0.557 0.114 0.973 0.142 1.249 0.082v0c-1.277 0.647-3.415 3.787-6.414 9.418v0c1.643-1.932 3.137-3.467 4.479-4.606 1.336-1.133 2.934-2.179 4.793-3.138 1.858-0.953 3.214-1.418 4.067-1.396v0c0.2 0.005 0.386 0.043 0.557 0.114zM268.99 8.995v0c-3.191-0.126-4.735-1.498-4.632-4.115v0c0.086-2.172 1.638-4.065 4.658-5.681v0c2.569-1.36 5.834-2.609 9.795-3.747v0c1.821-0.502 3.145-0.907 3.971-1.215v0c0.988-2.55 1.542-5.353 1.662-8.411v0c0.024-0.606 0.005-1.064-0.056-1.373v0c-1.022 1.895-2.406 3.828-4.152 5.801v0c-2.068 2.367-4.057 3.243-5.968 2.627v0c-1.736-0.822-2.561-2.319-2.475-4.491v0c0.115-2.918 1.7-6.068 4.756-9.45v0c1.674-1.842 3.59-2.974 5.748-3.397v0c0.58-0.151 1.159-0.215 1.739-0.191v0c1.525 0.06 3.001 0.629 4.426 1.705v0c0.522 0.468 0.777 0.851 0.766 1.151-0.012 0.306-0.124 0.602-0.336 0.888-0.218 0.278-0.432 0.303-0.643 0.074-0.211-0.228-0.346-0.447-0.405-0.656v0c-0.397-1.27-1.088-1.924-2.074-1.963v0c-1.799-0.071-3.867 1.105-6.204 3.528v0c-1.315 1.376-2.461 2.862-3.438 4.458v0c-1.206 1.987-1.831 3.534-1.874 4.64-0.044 1.106 0.267 1.859 0.932 2.259v0c0.236 0.109 0.474 0.169 0.713 0.178v0c0.779 0.031 1.776-0.464 2.991-1.483 1.215-1.026 2.354-2.342 3.418-3.949 1.064-1.613 1.751-2.87 2.06-3.772 0.309-0.909 0.665-1.472 1.068-1.689 0.396-0.225 0.834-0.344 1.315-0.359 0.474-0.015 0.797-0.089 0.969-0.222v0c0.213 1.543 0.279 3.34 0.198 5.392-0.081 2.052-0.529 4.373-1.345 6.963v0c1.61-1.057 2.761-2.016 3.456-2.876 0.694-0.853 1.252-1.629 1.673-2.326 0.421-0.697 0.799-1.39 1.132-2.077 0.327-0.681 0.548-1.123 0.663-1.325 0.108-0.203 0.283-0.322 0.525-0.36 0.235-0.044 0.347 0.07 0.336 0.344v0c-0.007 0.167-0.065 0.368-0.173 0.603v0c-1.614 3.032-2.951 5.215-4.011 6.547-1.054 1.34-2.462 2.382-4.227 3.126v0c-0.904 2.28-2.173 4.525-3.808 6.736-1.635 2.217-3.659 4.146-6.072 5.785-2.413 1.64-4.772 2.414-7.077 2.323zM265.389 5.891v0c-0.051 1.292 0.753 1.971 2.412 2.037v0c0.986 0.039 2.11-0.207 3.372-0.738 1.262-0.524 2.314-1.076 3.157-1.657v0c1.436-1.064 3.031-2.669 4.784-4.815v0c1.322-1.716 2.355-3.393 3.1-5.032v0l-1.803 0.549c-5.375 1.623-9.176 3.105-11.404 4.445v0c-1.634 0.99-2.739 2.291-3.316 3.902v0c-0.186 0.5-0.287 0.936-0.302 1.309zM322.069 0.667v0c-2.648-0.174-5.148-0.86-7.501-2.057-2.36-1.191-4.193-2.835-5.498-4.931-1.312-2.097-2.043-4.34-2.193-6.729v0c-0.066-1.027-0.059-2.152 0.022-3.376 0.08-1.217 0.339-2.817 0.776-4.799 0.438-1.982 1.249-4.11 2.435-6.384 1.191-2.267 2.558-4.251 4.099-5.954v0c-0.429-2.313-0.581-4.428-0.454-6.343 0.126-1.916 0.463-3.691 1.012-5.325v0c0.084-0.268 0.207-0.454 0.367-0.558 0.161-0.11 0.278-0.162 0.351-0.157v0c0.333 0.022 0.405 0.444 0.217 1.267-0.188 0.823-0.332 2.003-0.433 3.539-0.102 1.543-0.011 3.517 0.272 5.921v0c2.944-3.314 6.298-5.645 10.061-6.995v0c2.894-1.039 5.885-1.457 8.972-1.253v0c0.885 0.058 1.799 0.168 2.744 0.33v0c5.184 0.922 8.578 3.157 10.182 6.703v0c0.651 1.473 0.927 2.971 0.826 4.494-0.101 1.53-0.56 3.083-1.378 4.66v0c-1.705 3.162-4.424 5.401-8.159 6.719v0c-2.409 0.864-5.003 1.204-7.784 1.021v0c-1.184-0.078-2.379-0.24-3.586-0.487v0c-6.015-1.284-10.033-4.445-12.053-9.481v0c-0.887 1.097-1.853 2.975-2.896 5.632-1.043 2.657-1.679 4.71-1.909 6.158-0.236 1.448-0.386 2.664-0.45 3.648-0.065 0.985-0.062 2.007 0.009 3.067v0c0.11 1.878 0.711 3.611 1.802 5.2 1.085 1.588 2.599 2.743 4.543 3.466 1.95 0.73 3.653 1.142 5.109 1.238v0c4.71 0.31 8.793-0.41 12.249-2.161v0c2.081-1.059 3.736-2.303 4.965-3.732 1.237-1.435 2.588-3.434 4.053-5.997v0c0.228-0.426 0.451-0.565 0.668-0.417 0.21 0.154 0.179 0.476-0.093 0.966v0c-1.463 2.529-2.793 4.52-3.991 5.971-1.204 1.451-2.798 2.776-4.781 3.975v0c-3.973 2.398-8.164 3.452-12.575 3.161zM316.491-31.068v0c2.004 6.298 6.821 9.699 14.451 10.201v0c4.311 0.284 7.839-0.694 10.585-2.932 2.753-2.237 4.23-4.883 4.431-7.936 0.201-3.053-0.963-5.515-3.493-7.385v0c-1.887-1.38-4.27-2.165-7.151-2.355-2.88-0.189-5.836 0.451-8.865 1.923v0c-3.799 1.895-7.119 4.723-9.958 8.484zM352.692-20.195v0c2.471 0.206 3.577 1.867 3.318 4.983v0c-0.119 1.422-0.618 2.915-1.497 4.481v0c-1.127 2.12-2.715 3.998-4.765 5.634v0c0.368 0.887 1.129 1.379 2.285 1.475v0c0.91 0.076 1.812-0.311 2.706-1.159v0c1.104-0.965 1.908-1.828 2.413-2.589 0.505-0.761 0.876-1.318 1.113-1.673 0.23-0.355 0.537-0.865 0.921-1.529 0.377-0.671 0.605-1.08 0.684-1.227 0.079-0.147 0.205-0.214 0.378-0.2v0c0.342-0.005 0.501 0.129 0.478 0.401v0c-0.008 0.1-0.051 0.216-0.13 0.351v0l-0.367 0.682c-0.239 0.455-0.42 0.781-0.544 0.978-0.117 0.198-0.323 0.548-0.619 1.052-0.296 0.504-0.55 0.897-0.761 1.181-0.218 0.29-0.508 0.677-0.869 1.162-0.361 0.478-0.684 0.86-0.969 1.143-0.278 0.285-0.618 0.597-1.021 0.939-0.403 0.341-0.783 0.6-1.139 0.778v0c-0.886 0.435-1.704 0.621-2.455 0.558v0c-1.389-0.116-2.435-0.644-3.139-1.586v0c-1.65 1.02-3.137 1.475-4.458 1.364v0c-2.471-0.206-3.577-1.867-3.318-4.983v0c0.119-1.422 0.618-2.915 1.497-4.481v0c1.214-2.287 2.814-4.181 4.799-5.681 1.985-1.507 3.805-2.191 5.459-2.054zM353.119-18.573v0c-0.91-0.076-2.044 0.442-3.401 1.552-1.351 1.118-2.605 2.686-3.763 4.704v0c-1.392 2.339-2.153 4.286-2.283 5.841-0.13 1.561 0.399 2.391 1.588 2.49v0c0.844 0.07 1.829-0.309 2.955-1.138v0c-0.473-0.822-0.673-1.672-0.6-2.549v0c0.188-1.456 0.84-2.138 1.956-2.045v0c0.438 0.037 0.791 0.22 1.058 0.55 0.26 0.329 0.38 0.62 0.359 0.873-0.022 0.259-0.077 0.519-0.165 0.779v0c0.642-0.796 1.403-1.944 2.284-3.442v0c0.988-1.657 1.551-3.313 1.688-4.967 0.138-1.661-0.42-2.544-1.676-2.649zM384.474-16.008v0c-4.854 6.928-7.387 11.457-7.598 13.586v0c-0.094 0.949 0.181 1.455 0.824 1.519v0c0.809 0.08 1.798-0.435 2.967-1.545v0c1.784-1.773 3.4-3.954 4.85-6.543v0c0.252-0.451 0.473-0.616 0.662-0.497 0.196 0.12 0.285 0.266 0.268 0.438-0.016 0.166-0.227 0.57-0.633 1.214-0.405 0.643-0.731 1.157-0.977 1.541-0.24 0.392-0.765 1.127-1.575 2.205-0.804 1.079-1.478 1.867-2.023 2.362-0.544 0.489-1.224 0.957-2.039 1.406-0.815 0.448-1.703 0.625-2.665 0.529-0.962-0.095-1.735-0.648-2.318-1.657v0c-0.261-0.475-0.354-1.09-0.279-1.846 0.076-0.763 0.336-1.668 0.782-2.716 0.446-1.048 1.549-2.714 3.31-4.998v0c0.432-0.573 0.666-1.039 0.701-1.398 0.035-0.352-0.226-0.555-0.784-0.61-0.557-0.055-1.629 0.522-3.216 1.731-1.587 1.209-3.297 2.882-5.131 5.018-1.834 2.143-2.972 3.892-3.414 5.249v0c-0.577-0.057-0.978-0.335-1.204-0.833-0.225-0.505-0.32-0.926-0.287-1.265v0c0.138-1.387 1.331-3.931 3.581-7.634v0c0.738-1.226 1.146-2.064 1.224-2.511 0.079-0.454 0.043-0.699-0.108-0.734-0.151-0.028-0.369 0.01-0.654 0.116v0c-0.641 0.245-1.643 0.896-3.008 1.952v0c-2.584 1.934-5.246 5-7.987 9.197v0c-0.203 0.355-0.434 0.563-0.695 0.624-0.267 0.061-0.774 0.071-1.52 0.03-0.746-0.041-1.245-0.006-1.498 0.103v0c0.727-1.12 2.015-3.227 3.863-6.32v0c3.31-5.547 5.467-8.716 6.47-9.507v0c0.445-0.365 1.022-0.512 1.732-0.441v0c0.139 0.014 0.482 0.101 1.029 0.262 0.547 0.155 0.96 0.213 1.239 0.174v0c-1.321 0.552-3.683 3.527-7.085 8.924v0c1.78-1.806 3.049-2.977 3.805-3.512 0.75-0.542 1.31-0.949 1.679-1.22 0.369-0.272 0.654-0.481 0.856-0.629 0.203-0.154 0.499-0.373 0.889-0.655 0.39-0.29 0.686-0.501 0.887-0.636 0.201-0.134 0.484-0.317 0.848-0.549 0.365-0.238 0.645-0.392 0.84-0.459 0.194-0.068 0.461-0.185 0.798-0.353 0.339-0.174 0.585-0.254 0.738-0.238 0.153 0.015 0.369-0.007 0.649-0.066 0.28-0.053 0.463-0.008 0.55 0.134v0c0.65 0.339 0.946 0.794 0.889 1.365v0c-0.051 0.511-0.754 1.758-2.109 3.74-1.356 1.983-2.236 3.295-2.642 3.938v0c1.67-1.71 3.242-3.098 4.714-4.165 1.472-1.067 3.178-2.016 5.117-2.848 1.945-0.832 3.342-1.206 4.191-1.122v0c0.199 0.02 0.365 0.07 0.497 0.15zM401.169-11.254v0c-0.171 1.49-0.747 3.085-1.727 4.784-0.987 1.698-2.258 3.297-3.812 4.796-1.561 1.498-3.353 2.437-5.377 2.815v0c-0.765 0.12-1.632 0.125-2.598 0.013-0.96-0.11-1.978-0.536-3.054-1.277v0l-6.198 11.448c-0.627 1.022-1.179 1.676-1.655 1.964-0.483 0.287-0.926 0.407-1.329 0.36-0.404-0.046-0.649-0.075-0.736-0.084-0.079-0.009-0.375-0.093-0.886-0.253-0.512-0.159-0.905-0.238-1.181-0.236v0c0.823-0.623 3.091-3.775 6.804-9.456 3.713-5.68 5.894-9.543 6.545-11.588v0c-0.433 0.5-0.821 0.748-1.162 0.742v0c-0.205-0.024-0.183-0.219 0.067-0.586 0.244-0.368 0.668-1.081 1.273-2.139v0c0.769-1.381 1.225-2.688 1.366-3.92 0.142-1.232-0.011-1.978-0.458-2.237v0c2.065-0.105 3.266-0.128 3.602-0.069 0.336 0.052 0.529 0.218 0.576 0.499 0.055 0.281 0.063 0.591 0.025 0.929v0c-0.237 2.06-0.974 4.3-2.212 6.722v0l1.199-1.503c1.444-1.82 2.477-2.983 3.099-3.49 0.623-0.512 1.29-1.036 2.002-1.571v0c1.088-0.828 2.086-1.19 2.994-1.086v0c0.272 0.031 0.523 0.094 0.753 0.188v0c1.639 0.631 2.332 2.043 2.08 4.235zM398.793-12.031v0c0.062-0.543 0.011-1.056-0.156-1.537-0.166-0.482-0.488-0.751-0.964-0.806v0c-1.179-0.135-2.68 0.806-4.502 2.825-1.822 2.012-4.514 5.585-8.076 10.718v0c0.387 0.487 0.968 0.776 1.742 0.865 0.775 0.089 1.939-0.374 3.492-1.391v0c2.483-1.634 4.643-3.765 6.482-6.392v0c1.189-1.709 1.85-3.136 1.982-4.282zM418.399-9.081c-0.684 0.526-1.715 1.791-3.095 3.796-1.379 2.005-2.244 3.522-2.594 4.554-0.351 1.038-0.568 1.884-0.65 2.539-0.083 0.662 0.127 1.024 0.63 1.086v0c0.642 0.08 1.509-0.413 2.604-1.479v0c1.597-1.547 3.244-3.619 4.938-6.215v0c0.17-0.288 0.344-0.437 0.52-0.45v0c0.277-0.066 0.397 0.053 0.359 0.358v0c-0.021 0.165-0.095 0.361-0.225 0.586v0c-3.886 5.884-6.891 8.693-9.014 8.428v0c-0.979-0.122-1.714-0.694-2.204-1.716v0c-0.241-0.541-0.31-1.231-0.205-2.072 0.106-0.847 0.403-1.854 0.891-3.023v0c-3.235 4.01-5.832 5.893-7.79 5.648v0c-0.542-0.068-1.011-0.298-1.405-0.689v0c-0.924-0.834-1.278-2.111-1.063-3.831v0c0.412-3.301 2.267-6.476 5.563-9.524v0c1.85-1.69 3.992-2.672 6.425-2.947v0c0.663-0.092 1.283-0.102 1.858-0.03v0c1.548 0.193 2.794 0.897 3.737 2.11v0c0.291 0.413 0.349 0.779 0.175 1.1-0.181 0.32-0.486 0.42-0.914 0.299v0c-0.219-1.257-0.954-1.963-2.204-2.119v0c-1.449-0.181-3.378 0.74-5.787 2.764v0c-1.379 1.198-2.705 2.642-3.978 4.33v0c-1.591 2.032-2.468 3.706-2.633 5.022-0.164 1.31 0.175 2.017 1.015 2.122v0c2.024 0.253 5.058-2.519 9.101-8.316v0c0.797-1.164 1.446-1.946 1.946-2.347 0.494-0.402 1.078-0.561 1.753-0.476v0c0.132 0.017 0.47 0.109 1.013 0.278 0.542 0.175 0.953 0.247 1.233 0.214zM436.422-9.539v0c-5.145 6.699-7.871 11.162-8.178 13.388v0c-0.12 0.872 0.14 1.352 0.78 1.44v0c1.717 0.237 4.424-2.357 8.121-7.782v0c0.269-0.441 0.496-0.598 0.681-0.472 0.191 0.127 0.275 0.277 0.251 0.449-0.023 0.165-0.117 0.357-0.282 0.577v0c-2.287 3.352-4.139 5.627-5.555 6.824-1.416 1.191-2.738 1.701-3.967 1.532-1.228-0.17-2.098-0.768-2.609-1.794v0c-0.276-0.489-0.362-1.11-0.258-1.863 0.105-0.759 0.4-1.654 0.886-2.684 0.485-1.03 1.655-2.652 3.508-4.866v0c0.454-0.556 0.705-1.013 0.755-1.369 0.048-0.35-0.215-0.565-0.79-0.644-0.575-0.079-1.772 0.526-3.592 1.815v0c-2.731 1.891-5.533 4.903-8.405 9.036v0c-0.245 0.309-0.501 0.486-0.769 0.529-0.263 0.051-0.766 0.042-1.511-0.027-0.744-0.069-1.245-0.051-1.502 0.056v0c0.69-1.002 2.055-3.061 4.094-6.179v0c3.647-5.5 5.964-8.612 6.952-9.336v0c0.458-0.347 1.041-0.472 1.748-0.375v0c0.139 0.019 0.478 0.12 1.018 0.302 0.541 0.176 0.952 0.249 1.232 0.221v0c-1.341 0.501-3.815 3.383-7.423 8.646v0c1.848-1.737 3.503-3.097 4.965-4.079 1.454-0.977 3.158-1.839 5.112-2.586 1.953-0.74 3.352-1.051 4.197-0.934v0c0.198 0.027 0.378 0.086 0.541 0.175zM426.206 22.092v0c-1.476-0.226-2.571-0.715-3.286-1.465-0.709-0.743-0.997-1.549-0.863-2.419 0.134-0.876 0.54-1.829 1.217-2.859v0c1.133-1.58 2.922-2.715 5.369-3.405v0c1.837-0.541 4.218-0.941 7.144-1.2 2.925-0.253 4.808-0.436 5.649-0.55v0c1.537-1.929 3.563-5.486 6.078-10.672v0c-2.476 3.127-4.476 5.279-5.998 6.455-1.523 1.176-2.953 1.661-4.29 1.456v0c-1.819-0.279-2.764-1.196-2.836-2.751v0c-0.095-0.257-0.074-0.618 0.065-1.083 0.138-0.458 0.232-0.784 0.282-0.979 0.051-0.201 0.21-0.514 0.478-0.938 0.274-0.423 0.459-0.729 0.555-0.916v0c0.488-0.721 0.901-1.278 1.238-1.672v0c-0.54-0.083-0.651-0.373-0.332-0.87v0l1.181-1.63c1.475-2.006 2.697-3.707 3.666-5.103v0c0.445-0.66 1.155-0.915 2.131-0.766v0l3.074 0.472c-0.077 0.062-0.266 0.172-0.566 0.327v0c-0.668 0.309-1.195 0.71-1.581 1.205v0c-1.525 1.897-3.494 4.637-5.905 8.219v0c-0.981 1.468-1.528 2.571-1.641 3.31-0.113 0.738-0.065 1.278 0.146 1.621 0.204 0.342 0.523 0.546 0.958 0.612v0c0.639 0.098 1.632-0.438 2.978-1.607v0c2.813-2.421 6.121-6.399 9.925-11.933v0c0.485-0.654 1.195-0.909 2.13-0.766v0l2.728 0.419c-0.969 0.472-1.775 1.131-2.417 1.976-0.65 0.851-1.389 2.019-2.217 3.504-0.829 1.492-1.889 3.477-3.18 5.957-1.292 2.486-2.276 4.349-2.952 5.587v0c3.301-0.458 5.975-1.751 8.021-3.878v0c0.898-0.928 2.239-2.614 4.024-5.059v0c0.309-0.431 0.548-0.584 0.717-0.456 0.168 0.134 0.24 0.283 0.215 0.447-0.026 0.171-0.402 0.775-1.127 1.81-0.726 1.042-1.45 1.997-2.17 2.865-0.714 0.875-1.603 1.747-2.667 2.615-1.064 0.869-2.195 1.511-3.392 1.928-1.197 0.417-2.77 0.819-4.718 1.209v0c-3.312 4.308-6.448 7.367-9.411 9.179v0c-2.761 1.64-5.568 2.242-8.42 1.804zM424.046 16.651v0c-0.482 0.681-0.771 1.335-0.868 1.962-0.095 0.619 0.069 1.134 0.492 1.542 0.416 0.408 0.977 0.666 1.682 0.774v0c1.951 0.299 4.186-0.38 6.706-2.037 2.528-1.663 4.804-3.505 6.828-5.528v0l1.403-1.697c-5.763 0.593-9.419 1.098-10.966 1.514v0c-2.293 0.613-4.052 1.769-5.277 3.47z" opacity="1" transform="matrix(1,0,0,1,0,0)" fill="#bb84e8" class="wordmark-text-0" data-fill-palette-color="primary" id="text-0"></path></svg></g></svg></g><g transform="matrix(1,0,0,1,118.31980799999998,68.81758011799228)"><svg viewBox="0 0 158.88038400000002 15.036533705666422" height="15.036533705666422" width="158.88038400000002"><g transform="matrix(1,0,0,1,0,0)"><svg width="158.88038400000002" viewBox="0 -35.38999938964844 378.70001220703125 35.849998474121094" height="15.036533705666422" data-palette-color="#b19dd0"><path d="M13.3-24.37L9.38-14.05 20.12-14.05 16.25-24.37Q15.47-26.49 14.71-29.17L14.71-29.17Q14.26-27.1 13.3-24.37L13.3-24.37ZM16.41-33.39L29.47 0 25.48 0 21.33-10.57 8.01-10.57 3.92 0 0 0 13.14-33.39 16.41-33.39ZM37.76-19.65Q35.99-17.09 35.99-12.34 35.99-7.58 37.75-5.14 39.51-2.7 42.89-2.7L42.89-2.7Q46.76-2.7 48.51-4.82 50.25-6.93 50.25-11.6L50.25-11.6 50.25-12.39Q50.25-17.72 48.48-19.97 46.71-22.22 42.84-22.22L42.84-22.22Q39.53-22.22 37.76-19.65ZM50.25-3.34Q47.62 0.46 42.58 0.46 37.54 0.46 34.81-2.88L34.81-2.88Q32.08-6.27 32.08-12.41 32.08-18.55 34.81-21.97 37.54-25.38 42.53-25.38 47.52-25.38 50.2-21.71L50.2-21.71 50.5-21.71 50.33-23.51 50.25-25.25 50.25-35.39 54.02-35.39 54.02 0 50.96 0 50.45-3.34 50.25-3.34ZM81.34-24.92L71.89 0 67.46 0 58.01-24.92 62.05-24.92 67.44-10.14Q69.26-4.9 69.56-3.41L69.56-3.41 69.74-3.41Q70.02-4.65 71.17-7.94 72.32-11.22 77.3-24.92L77.3-24.92 81.34-24.92ZM95.87 0.46L95.87 0.46Q90.34 0.46 87.13-2.91L87.13-2.91Q83.94-6.27 83.94-12.29 83.94-18.3 86.9-21.84L86.9-21.84Q89.91-25.38 94.75-25.38 99.59-25.38 102.32-22.3 105.05-19.21 105.05-14.18L105.05-14.18 105.05-11.78 87.86-11.78Q87.99-7.41 90.08-5.12 92.18-2.83 96.14-2.83 100.09-2.83 103.96-4.52L103.96-4.52 103.96-1.16Q102.01-0.3 100.19 0.08 98.37 0.46 95.87 0.46ZM87.96-14.86L101-14.86Q101-18.43 99.41-20.32 97.82-22.22 94.85-22.22 91.88-22.22 90.07-20.27 88.26-18.33 87.96-14.86L87.96-14.86ZM132.32-16.25L132.32 0 128.53 0 128.53-16.13Q128.53-19.21 127.14-20.69 125.75-22.17 122.82-22.17L122.82-22.17Q118.9-22.17 117.08-20.06 115.26-17.95 115.26-13.07L115.26-13.07 115.26 0 111.47 0 111.47-24.92 114.55-24.92 115.16-21.51 115.33-21.51Q116.5-23.33 118.59-24.36 120.69-25.38 123.27-25.38L123.27-25.38Q127.82-25.38 130.07-23.18 132.32-20.98 132.32-16.25L132.32-16.25ZM144.12-21.99L144.12-7.33Q144.12-5.08 145.17-3.87 146.22-2.65 148.05-2.65 149.89-2.65 151.53-3.11L151.53-3.11 151.53-0.23Q150.95 0.05 149.7 0.25 148.45 0.46 147.56 0.46L147.56 0.46Q140.33 0.46 140.33-7.15L140.33-7.15 140.33-21.99 136.77-21.99 136.77-23.81 140.33-25.38 141.92-30.71 144.12-30.71 144.12-24.92 151.35-24.92 151.35-21.99 144.12-21.99ZM156.25-8.62L156.25-24.92 160.07-24.92 160.07-8.75Q160.07-5.69 161.47-4.2 162.88-2.7 165.81-2.7L165.81-2.7Q169.73-2.7 171.52-4.85 173.32-7 173.32-11.83L173.32-11.83 173.32-24.92 177.11-24.92 177.11 0 174 0 173.44-3.34 173.24-3.34Q172.08-1.52 170.03-0.53 167.98 0.46 165.33 0.46L165.33 0.46Q160.73 0.46 158.49-1.73 156.25-3.92 156.25-8.62L156.25-8.62ZM196.47-25.38L196.47-25.38Q198.19-25.38 199.45-25.13L199.45-25.13 198.95-21.61Q197.45-21.94 196.22-21.94L196.22-21.94Q193.18-21.94 191.03-19.49 188.89-17.04 188.89-13.37L188.89-13.37 188.89 0 185.09 0 185.09-24.92 188.23-24.92 188.66-20.32 188.83-20.32Q190.23-22.78 192.18-24.08 194.14-25.38 196.47-25.38ZM213.71 0.46L213.71 0.46Q208.17 0.46 204.96-2.91L204.96-2.91Q201.77-6.27 201.77-12.29 201.77-18.3 204.73-21.84L204.73-21.84Q207.74-25.38 212.58-25.38 217.42-25.38 220.15-22.3 222.88-19.21 222.88-14.18L222.88-14.18 222.88-11.78 205.69-11.78Q205.82-7.41 207.92-5.12 210.02-2.83 213.97-2.83 217.93-2.83 221.79-4.52L221.79-4.52 221.79-1.16Q219.85-0.3 218.03 0.08 216.21 0.46 213.71 0.46ZM205.79-14.86L218.84-14.86Q218.84-18.43 217.24-20.32 215.65-22.22 212.68-22.22 209.71-22.22 207.9-20.27 206.1-18.33 205.79-14.86L205.79-14.86ZM252.05-24.37L248.13-14.05 258.87-14.05 255.01-24.37Q254.22-26.49 253.46-29.17L253.46-29.17Q253.01-27.1 252.05-24.37L252.05-24.37ZM255.16-33.39L268.23 0 264.23 0 260.09-10.57 246.76-10.57 242.67 0 238.75 0 251.9-33.39 255.16-33.39ZM303.97-24.92L297.07 0 292.59 0 288.02-14.64Q287.51-16.25 286.4-20.73L286.4-20.73 286.22-20.73Q285.31-16.73 284.63-14.59L284.63-14.59 279.93 0 275.55 0 268.75-24.92 272.7-24.92Q275.58-13.78 276.6-9.76 277.63-5.74 277.83-3.99L277.83-3.99 278.01-3.99Q278.33-5.61 278.9-7.68 279.47-9.76 279.78-10.62L279.78-10.62 284.35-24.92 288.45-24.92 292.89-10.62Q294.18-6.72 294.64-4.04L294.64-4.04 294.82-4.04Q294.94-5.01 295.5-7.37 296.05-9.73 300.05-24.92L300.05-24.92 303.97-24.92ZM310.56-6.85L310.56-6.85Q310.56-4.83 311.8-3.74 313.04-2.65 315.26-2.65L315.26-2.65Q318.83-2.65 320.82-4.59 322.82-6.52 322.82-10.01L322.82-10.01 322.82-12.26 319.05-12.11Q314.56-11.93 312.56-10.69 310.56-9.45 310.56-6.85ZM326.61-17.01L326.61 0 323.81 0 323.05-3.54 322.87-3.54Q321-1.21 319.16-0.38 317.31 0.46 314.53 0.46L314.53 0.46Q310.79 0.46 308.7-1.47 306.62-3.39 306.62-6.9L306.62-6.9Q306.62-14.43 318.68-14.81L318.68-14.81 322.92-14.94 322.92-16.48Q322.92-19.46 321.66-20.84 320.39-22.22 317.45-22.22 314.5-22.22 310.56-20.32L310.56-20.32 309.4-23.21Q313.34-25.35 317.84-25.35 322.34-25.35 324.48-23.36 326.61-21.36 326.61-17.01L326.61-17.01ZM337.88-29.82Q337.25-29.17 336.27-29.17 335.28-29.17 334.67-29.82 334.07-30.46 334.07-31.7 334.07-32.94 334.67-33.57 335.28-34.2 336.27-34.2 337.25-34.2 337.88-33.56 338.52-32.91 338.52-31.69 338.52-30.46 337.88-29.82ZM334.37-24.92L338.16-24.92 338.16 0 334.37 0 334.37-24.92ZM350.22-21.99L350.22-7.33Q350.22-5.08 351.27-3.87 352.32-2.65 354.15-2.65 355.98-2.65 357.62-3.11L357.62-3.11 357.62-0.23Q357.04 0.05 355.79 0.25 354.54 0.46 353.66 0.46L353.66 0.46Q346.43 0.46 346.43-7.15L346.43-7.15 346.43-21.99 342.86-21.99 342.86-23.81 346.43-25.38 348.02-30.71 350.22-30.71 350.22-24.92 357.45-24.92 357.45-21.99 350.22-21.99ZM378.7-6.8L378.7-6.8Q378.7-3.31 376.11-1.43 373.52 0.46 368.69 0.46 363.87 0.46 361.08-1.11L361.08-1.11 361.08-4.63Q364.98-2.65 368.92-2.65L368.92-2.65Q375.06-2.65 375.06-6.47L375.06-6.47Q375.06-7.94 373.77-8.99 372.49-10.04 368.97-11.36 365.46-12.69 363.92-13.68L363.92-13.68Q361.01-15.65 361.01-18.76 361.01-21.87 363.49-23.62 365.96-25.38 370.17-25.38 374.38-25.38 378.17-23.76L378.17-23.76 376.83-20.68Q373.12-22.22 370.25-22.22 367.38-22.22 366-21.4 364.62-20.58 364.62-19.06L364.62-19.06Q364.62-18.1 365.12-17.38 365.61-16.66 366.75-16.01 367.88-15.37 371.15-14.18L371.15-14.18Q375.59-12.54 377.15-10.91 378.7-9.28 378.7-6.8Z" opacity="1" transform="matrix(1,0,0,1,0,0)" fill="#b19dd0" class="slogan-text-1" data-fill-palette-color="secondary" id="text-1"></path></svg></g></svg></g></svg></g></svg></g><g transform="matrix(1,0,0,1,128.98602375445742,0)"><svg viewBox="0 0 137.54795249108514 135.67595616667978" height="135.67595616667978" width="137.54795249108514"><g><svg xmlns="http://www.w3.org/2000/svg" xmlns:xlink="http://www.w3.org/1999/xlink" version="1.1" x="0" y="0" viewBox="4.999598503112793 5.611999988555908 90.00089263916016 88.7760009765625" enable-background="new 0 0 100 100" xml:space="preserve" height="135.67595616667978" width="137.54795249108514" class="icon-icon-0" data-fill-palette-color="accent" id="icon-0"><g fill="#b19dd0" data-fill-palette-color="accent"><path d="M48.094 8.742c1.317-1.422 3.148-2.361 5.2-2.526 0.109-0.009 0.172 0.122 0.1 0.205-1.199 1.392-1.921 3.204-1.921 5.177 0 4.399 3.568 7.968 7.962 7.968 0.119 0 0.237 0 0.351-0.011-1.546 1.673-3.803 2.679-6.287 2.544-3.939-0.215-7.196-3.387-7.498-7.32C45.821 12.444 46.649 10.303 48.094 8.742z" fill="#b19dd0" data-fill-palette-color="accent"></path><circle cx="69.958" cy="8.483" r="1.8" fill="#b19dd0" data-fill-palette-color="accent"></circle><circle cx="47.773" cy="30.725" r="1.8" fill="#b19dd0" data-fill-palette-color="accent"></circle><circle cx="29.065" cy="7.047" r="1.4" fill="#b19dd0" data-fill-palette-color="accent"></circle><circle cx="89.845" cy="16.358" r="1.4" fill="#b19dd0" data-fill-palette-color="accent"></circle><circle cx="13.282" cy="31.428" r="2.2" fill="#b19dd0" data-fill-palette-color="accent"></circle><circle cx="8.033" cy="15.511" r="2.0" fill="#b19dd0" data-fill-palette-color="accent"></circle><rect x="29.065" y="57.015" width="4.362" height="9.679" fill="#b19dd0" data-fill-palette-color="accent"></rect><polygon points="47.775,55.72 40.371,44.788 45.931,44.788 37.481,32.31 42.771,32.31 31.246,15.291 19.721,32.31 25.012,32.31    16.561,44.788 22.121,44.788 14.718,55.72  " fill="#b19dd0" data-fill-palette-color="accent"></polygon><rect x="77.392" y="46.75" width="3.573" height="7.928" fill="#b19dd0" data-fill-palette-color="accent"></rect><polygon points="92.716,45.689 86.653,36.735 91.206,36.735 84.285,26.514 88.618,26.514 79.178,12.575 69.738,26.514    74.072,26.514 67.15,36.735 71.704,36.735 65.64,45.689  " fill="#b19dd0" data-fill-palette-color="accent"></polygon><polygon points="46.337,58.246 33.105,83.22 38.493,85.384 45.546,74.896 52.162,90.871 60.922,94.388  " fill="#b19dd0" data-fill-palette-color="accent"></polygon><polygon points="47.887,57.298 73.517,49.447 88.334,82.476 63.302,94.388  " fill="#b19dd0" data-fill-palette-color="accent"></polygon><path d="M27.298 88.448l-3.428-2.181 2.75-0.339c0.897-0.111 1.535-0.928 1.424-1.826-0.111-0.898-0.927-1.535-1.826-1.424l-2.108 0.26 0.487-0.538c0.606-0.671 0.554-1.706-0.116-2.313-0.114-0.103-0.241-0.18-0.372-0.245-0.04 0.197-0.089 0.385-0.137 0.573 0.116-0.646 0.196-1.335 0.228-2.069 0.165-2.858-1.505-6.847-1.607-6.971-0.266-0.587-0.542-1.165-0.828-1.734-0.126 0.872-0.275 1.732-0.448 2.58-0.845-2.04-1.821-3.974-2.91-5.791-0.166 2.126-0.485 4.186-0.94 6.162-0.333-0.879-0.693-1.739-1.077-2.578-0.134 0.59-0.28 1.173-0.437 1.746-0.013 0.183-1.047 3.627-1.172 5.942-0.033 1.004 0.003 1.961 0.107 2.851l-0.997-0.634c-0.762-0.486-1.774-0.261-2.26 0.503-0.485 0.763-0.26 1.775 0.503 2.26l2.282 1.451-3.957 0.488c-0.898 0.111-1.535 0.928-1.424 1.826 0.102 0.829 0.808 1.437 1.623 1.437 0.067 0 0.134-0.004 0.203-0.012l4.92-0.607-1.124 1.466c-0.606 0.671-0.554 1.706 0.116 2.313 0.313 0.284 0.706 0.423 1.098 0.423 0.447 0 0.891-0.181 1.215-0.539l2.798-3.316 5.658 3.599c0.272 0.174 0.577 0.256 0.877 0.256 0.541 0 1.071-0.268 1.383-0.759C28.286 89.945 28.061 88.933 27.298 88.448zM16.011 77.747c0.041-1.129 0.37-2.545 0.653-3.744 0.326 0.93 0.621 1.882 0.883 2.853 0.687-2.033 1.231-4.17 1.611-6.394 0.919 1.906 1.718 3.921 2.376 6.032 0.252-0.841 0.481-1.696 0.687-2.564 0.399 1.225 0.81 3.027 0.751 4.363-0.191 4.476-2.245 7.117-4.247 6.637C16.694 84.45 15.885 81.519 16.011 77.747z" fill="#b19dd0" data-fill-palette-color="accent"></path><path d="M47.014 41.711c-0.239 0-0.478-0.086-0.668-0.26-0.401-0.369-0.428-0.994-0.059-1.396l12.861-13.992c0.304-0.333 0.795-0.415 1.191-0.204l8.236 4.384c0.481 0.257 0.665 0.855 0.408 1.336-0.256 0.481-0.854 0.667-1.336 0.408l-7.562-4.025-12.344 13.43C47.546 41.604 47.28 41.711 47.014 41.711z" fill="#b19dd0" data-fill-palette-color="accent"></path><path d="M15.239 42.718c-0.232 0-0.465-0.081-0.652-0.246l-9.252-8.134c-0.41-0.36-0.449-0.984-0.09-1.394 0.36-0.41 0.987-0.449 1.394-0.09l9.252 8.134c0.41 0.36 0.449 0.984 0.09 1.394C15.786 42.604 15.513 42.718 15.239 42.718z" fill="#b19dd0" data-fill-palette-color="accent"></path><path d="M89.013 30.497c-0.347 0-0.684-0.183-0.864-0.508-0.265-0.476-0.093-1.077 0.384-1.343l5-2.778c0.476-0.267 1.078-0.094 1.343 0.384 0.265 0.476 0.093 1.077-0.384 1.343l-5 2.778C89.34 30.457 89.175 30.497 89.013 30.497z" fill="#b19dd0" data-fill-palette-color="accent"></path></g></svg></g></svg></g><g></g></svg></g><defs></defs></svg><rect width="395.52" height="237.83836556397054" fill="none" stroke="none" visibility="hidden"></rect></g></svg></g></svg>